<svg id="Capa_1" data-name="Capa 1" xmlns="http://www.w3.org/2000/svg" xmlns:xlink="http://www.w3.org/1999/xlink" viewBox="0 0 228 234"><defs><style>.cls-1{fill:#3c6866;}.cls-2{fill:url(#linear-gradient);}.cls-3{fill:#90b14a;}.cls-4{fill:#6c9052;}.cls-5{fill:url(#linear-gradient-2);}.cls-6{fill:url(#linear-gradient-3);}</style><linearGradient id="linear-gradient" x1="164.54" y1="88.36" x2="225.93" y2="88.36" gradientUnits="userSpaceOnUse"><stop offset="0" stop-color="#538080"/><stop offset="1" stop-color="#3c6866"/></linearGradient><linearGradient id="linear-gradient-2" x1="83.83" y1="145.96" x2="145.21" y2="145.96" gradientUnits="userSpaceOnUse"><stop offset="0" stop-color="#82a366"/><stop offset="0.97" stop-color="#6c9052"/></linearGradient><linearGradient id="linear-gradient-3" x1="2.08" y1="88.36" x2="63.46" y2="88.36" gradientUnits="userSpaceOnUse"><stop offset="0" stop-color="#b7c63f"/><stop offset="1" stop-color="#90b14a"/></linearGradient></defs><title>Mesa de trabajo 2</title><path class="cls-1" d="M219.33,126.16l-.06-.07c-.37-.44-.76-.87-1.15-1.29-3.76-4.39-15.2-19.19-15-36.87.25-17.3,10.9-31.3,14.77-35.82.46-.49.91-1,1.33-1.5l.06,0h0a28.69,28.69,0,0,0,6.61-18.28c0-16.31-13.74-29.53-30.69-29.53S164.54,16,164.54,32.28a28.7,28.7,0,0,0,6.62,18.28h0l.06.06c.42.51.87,1,1.32,1.47,3.85,4.5,14.53,18.52,14.77,35.84.25,17.7-11.21,32.52-15,36.88-.39.42-.77.84-1.13,1.28a.45.45,0,0,0-.07.07h0a28.7,28.7,0,0,0-6.62,18.28c0,16.31,13.75,29.53,30.7,29.53s30.69-13.22,30.69-29.53a28.69,28.69,0,0,0-6.61-18.28Z"/><path class="cls-1" d="M221,124.47c-19.33-20.87-19.9-51.43,0-72.22a2.41,2.41,0,0,0-1.69-4.08h0c.68,1.2,1.37,2.4,2.06,3.59,16.4-22.34.29-50-26.14-51.4C167.83-1.06,154,31.14,169.1,51.76c.69-1.19,1.37-2.39,2.06-3.59h0a2.41,2.41,0,0,0-1.69,4.08c19.69,20.89,19.51,51.32,0,72.22a2.41,2.41,0,0,0,1.69,4.08h0L169.1,125c-16.41,22.35-.29,50,26.14,51.41,27.41,1.42,41.28-30.79,26.14-51.41-.69,1.2-1.38,2.4-2.06,3.6h0c3.08,0,3.08-4.78,0-4.78h0c-1.67,0-3.17,2.09-2.06,3.59,14.15,19.29,1.11,43-22,44.22-24,1.24-35-26.48-22-44.22,1.1-1.5-.4-3.59-2.07-3.59h0c.57,1.36,1.13,2.72,1.69,4.08,21.39-22.92,21.59-56.06,0-79-.56,1.36-1.12,2.72-1.69,4.08h0c1.67,0,3.17-2.09,2.06-3.6-14.16-19.29-1.11-43,22-44.21,24-1.25,35,26.48,22,44.21-1.11,1.51.39,3.6,2.06,3.6h0c-.57-1.36-1.13-2.72-1.69-4.08-21.83,22.82-21.18,56.1,0,79C219.74,130.12,223.11,126.72,221,124.47Z"/><path class="cls-2" d="M219.33,126.16l-.06-.07c-.37-.44-.76-.87-1.15-1.29-3.76-4.39-15.2-19.19-15-36.87.25-17.3,10.9-31.3,14.77-35.82.46-.49.91-1,1.33-1.5l.06,0h0a28.69,28.69,0,0,0,6.61-18.28c0-16.31-13.74-29.53-30.69-29.53S164.54,16,164.54,32.28a28.7,28.7,0,0,0,6.62,18.28h0l.06.06c.42.51.87,1,1.32,1.47,3.85,4.5,14.53,18.52,14.77,35.84.25,17.7-11.21,32.52-15,36.88-.39.42-.77.84-1.13,1.28a.45.45,0,0,0-.07.07h0a28.7,28.7,0,0,0-6.62,18.28c0,16.31,13.75,29.53,30.7,29.53s30.69-13.22,30.69-29.53a28.69,28.69,0,0,0-6.61-18.28Z"/><path class="cls-3" d="M56.86,126.16l-.06-.07c-.37-.44-.76-.87-1.15-1.29-3.76-4.39-15.19-19.19-14.94-36.87.24-17.3,10.9-31.3,14.76-35.82.46-.49.91-1,1.34-1.5l0,0h0a28.69,28.69,0,0,0,6.61-18.28C63.46,16,49.72,2.75,32.77,2.75S2.08,16,2.08,32.28A28.69,28.69,0,0,0,8.69,50.56h0l.06.06c.42.51.86,1,1.32,1.47,3.85,4.5,14.53,18.52,14.77,35.84.26,17.7-11.2,32.52-14.95,36.88-.39.42-.77.84-1.13,1.28a.45.45,0,0,0-.07.07h0a28.69,28.69,0,0,0-6.61,18.28C2.08,160.75,15.82,174,32.77,174s30.69-13.22,30.69-29.53a28.69,28.69,0,0,0-6.61-18.28Z"/><path class="cls-3" d="M58.55,124.47c-19.32-20.87-19.9-51.43,0-72.22a2.41,2.41,0,0,0-1.69-4.08h0l2.06,3.59c16.41-22.34.29-50-26.14-51.4C5.36-1.06-8.51,31.14,6.63,51.76c.69-1.19,1.37-2.39,2.06-3.59h0A2.41,2.41,0,0,0,7,52.25c19.69,20.89,19.51,51.32,0,72.22a2.41,2.41,0,0,0,1.69,4.08h0L6.63,125c-16.4,22.35-.29,50,26.14,51.41,27.41,1.42,41.28-30.79,26.14-51.41-.68,1.2-1.37,2.4-2.06,3.6h0c3.08,0,3.08-4.78,0-4.78h0c-1.67,0-3.17,2.09-2.06,3.59,14.16,19.29,1.11,43-22,44.22-24,1.24-35-26.48-22-44.22,1.1-1.5-.4-3.59-2.07-3.59h0c.57,1.36,1.13,2.72,1.69,4.08,21.39-22.92,21.6-56.06,0-79C9.81,50.23,9.25,51.59,8.68,53h0c1.67,0,3.17-2.09,2.07-3.6-14.17-19.29-1.12-43,22-44.21,24-1.25,35,26.48,22,44.21-1.11,1.51.39,3.6,2.06,3.6h0l-1.69-4.08c-21.83,22.82-21.18,56.1,0,79C57.27,130.12,60.64,126.72,58.55,124.47Z"/><path class="cls-4" d="M138.61,183.76l-.06-.06c-.37-.45-.76-.88-1.15-1.3-3.76-4.39-15.2-19.19-14.94-36.86.24-17.31,10.9-31.31,14.76-35.83.46-.48.91-1,1.34-1.5l.05,0h0a28.69,28.69,0,0,0,6.61-18.28c0-16.31-13.74-29.53-30.69-29.53S83.83,73.57,83.83,89.88a28.69,28.69,0,0,0,6.61,18.28h0l.06.06c.42.51.86,1,1.32,1.48,3.85,4.49,14.53,18.51,14.77,35.84.25,17.69-11.21,32.51-15,36.88-.39.41-.77.83-1.13,1.27l-.07.07h0A28.69,28.69,0,0,0,83.83,202c0,16.31,13.74,29.53,30.69,29.53s30.69-13.22,30.69-29.53a28.69,28.69,0,0,0-6.61-18.28Z"/><path class="cls-4" d="M140.3,182.07c-19.33-20.87-19.9-51.42,0-72.22a2.41,2.41,0,0,0-1.69-4.08h0c.68,1.2,1.38,2.4,2.06,3.6,16.4-22.35.29-50-26.14-51.41-27.41-1.42-41.28,30.79-26.14,51.41.68-1.2,1.37-2.4,2.06-3.6h0a2.41,2.41,0,0,0-1.69,4.08c19.69,20.89,19.51,51.32,0,72.22a2.41,2.41,0,0,0,1.69,4.08h0c-.68-1.2-1.38-2.4-2.06-3.6-16.41,22.35-.29,50,26.14,51.41,27.41,1.42,41.28-30.79,26.14-51.41-.68,1.2-1.38,2.4-2.06,3.6h0c3.08,0,3.08-4.78,0-4.78h0c-1.67,0-3.17,2.09-2.07,3.6,14.17,19.29,1.12,43-22,44.21-24,1.24-35-26.48-22-44.21,1.11-1.51-.39-3.6-2.06-3.6h0c.57,1.36,1.13,2.72,1.69,4.08,21.39-22.92,21.6-56.06,0-79-.56,1.36-1.12,2.72-1.69,4.08h0c1.67,0,3.17-2.09,2.06-3.6-14.16-19.28-1.11-43,22-44.21,24-1.24,35,26.48,22,44.21-1.1,1.51.4,3.6,2.07,3.6h0c-.57-1.36-1.13-2.72-1.69-4.08-21.83,22.82-21.18,56.1,0,79C139,187.72,142.39,184.33,140.3,182.07Z"/><path class="cls-5" d="M138.61,183.76l-.06-.06c-.37-.45-.76-.88-1.15-1.3-3.76-4.39-15.2-19.19-14.94-36.86.24-17.31,10.9-31.31,14.76-35.83.46-.48.91-1,1.34-1.5l.05,0h0a28.69,28.69,0,0,0,6.61-18.28c0-16.31-13.74-29.53-30.69-29.53S83.83,73.57,83.83,89.88a28.69,28.69,0,0,0,6.61,18.28h0l.06.06c.42.51.86,1,1.32,1.48,3.85,4.49,14.53,18.51,14.77,35.84.25,17.69-11.21,32.51-15,36.88-.39.41-.77.83-1.13,1.27l-.07.07h0A28.69,28.69,0,0,0,83.83,202c0,16.31,13.74,29.53,30.69,29.53s30.69-13.22,30.69-29.53a28.69,28.69,0,0,0-6.61-18.28Z"/><path class="cls-6" d="M56.86,126.16l-.06-.07c-.37-.44-.76-.87-1.15-1.29-3.76-4.39-15.19-19.19-14.94-36.87.24-17.3,10.9-31.3,14.76-35.82.46-.49.91-1,1.34-1.5l0,0h0a28.69,28.69,0,0,0,6.61-18.28C63.46,16,49.72,2.75,32.77,2.75S2.08,16,2.08,32.28A28.69,28.69,0,0,0,8.69,50.56h0l.06.06c.42.51.86,1,1.32,1.47,3.85,4.5,14.53,18.52,14.77,35.84.26,17.7-11.2,32.52-14.95,36.88-.39.42-.77.84-1.13,1.28a.45.45,0,0,0-.07.07h0a28.69,28.69,0,0,0-6.61,18.28C2.08,160.75,15.82,174,32.77,174s30.69-13.22,30.69-29.53a28.69,28.69,0,0,0-6.61-18.28Z"/></svg>