<?xml version="1.0" encoding="utf-8"?>
<!-- Generator: Adobe Illustrator 16.0.0, SVG Export Plug-In . SVG Version: 6.00 Build 0)  -->
<!DOCTYPE svg PUBLIC "-//W3C//DTD SVG 1.1//EN" "http://www.w3.org/Graphics/SVG/1.1/DTD/svg11.dtd">
<svg version="1.1" id="Capa_1" xmlns="http://www.w3.org/2000/svg" xmlns:xlink="http://www.w3.org/1999/xlink" x="0px" y="0px"
	 width="841.889px" height="227px" viewBox="0 184.14 841.889 227" enable-background="new 0 184.14 841.889 227"
	 xml:space="preserve">
<title>Recurso 1</title>
<g id="Capa_2">
	<g id="Capa_1-2">
		<path fill="#FFFFFF" d="M188.896,313.909L188.896,313.909c-0.308-0.381-0.645-0.747-0.981-1.113
			c-3.235-3.777-13.091-16.518-12.871-31.731c0.205-14.906,9.387-26.958,12.71-30.853c0.396-0.425,0.791-0.85,1.157-1.289l0,0l0,0
			c3.672-4.425,5.687-9.991,5.696-15.741c0-14.043-11.832-25.436-26.357-25.436c-14.526,0-26.357,11.393-26.357,25.436
			c0.01,5.75,2.024,11.316,5.696,15.741l0,0l0,0c0.37,0.439,0.751,0.864,1.142,1.274c3.119,3.807,12.344,15.917,12.534,30.809
			c0.22,15.229-9.649,27.983-12.886,31.746c-0.322,0.366-0.659,0.718-0.966,1.099l0,0l0,0c-3.672,4.425-5.687,9.991-5.696,15.741
			c0,14.043,11.831,25.421,26.357,25.421c14.525,0,26.357-11.378,26.357-25.421C194.452,323.882,192.497,318.341,188.896,313.909z"
			/>
		<path fill="#FFFFFF" d="M190.361,312.459c-16.635-17.967-17.133-44.28,0-62.188c0.792-0.831,0.762-2.147-0.069-2.94
			c-0.377-0.359-0.875-0.564-1.396-0.574l0,0l1.786,3.104c14.116-19.241,0.249-43.095-22.521-44.267
			c-23.59-1.229-35.539,26.504-22.507,44.267l1.787-3.104l0,0c-1.148,0.021-2.062,0.971-2.039,2.119
			c0.01,0.521,0.215,1.019,0.574,1.396c16.942,17.981,16.796,44.192,0,62.188c-0.792,0.82-0.771,2.127,0.05,2.92
			c0.38,0.367,0.886,0.575,1.415,0.58l0,0l-1.787-3.09c-14.115,19.241-0.249,43.08,22.507,44.267
			c23.604,1.215,35.554-26.504,22.521-44.267l-1.786,3.031l0,0c1.132,0,2.05-0.918,2.05-2.05s-0.918-2.05-2.05-2.05l0,0
			c-1.141,0.011-2.056,0.944-2.044,2.085c0.003,0.353,0.097,0.698,0.272,1.005c12.197,16.604,0.966,37.032-18.963,38.071
			c-20.646,1.069-30.165-22.799-18.948-38.071c0.566-0.99,0.223-2.252-0.768-2.817c-0.306-0.176-0.651-0.27-1.004-0.272l0,0
			l1.464,3.499c18.421-19.724,18.597-48.322,0-68.002l-1.464,3.514l0,0c1.14-0.011,2.055-0.944,2.044-2.085
			c-0.004-0.353-0.098-0.698-0.272-1.005c-12.198-16.604-0.967-37.047,18.948-38.071c20.661-1.069,30.165,22.799,18.963,38.071
			c-0.599,0.971-0.297,2.243,0.674,2.842c0.33,0.203,0.71,0.31,1.098,0.307l0,0c-0.483-1.171-0.967-2.343-1.464-3.514
			c-18.787,19.65-18.231,48.322,0,68.002C189.189,317.365,192.088,314.436,190.361,312.459z"/>
		<path fill="#FFFFFF" d="M188.896,313.909L188.896,313.909c-0.308-0.381-0.645-0.747-0.981-1.113
			c-3.235-3.777-13.091-16.518-12.871-31.731c0.205-14.906,9.387-26.958,12.71-30.853c0.396-0.425,0.791-0.85,1.157-1.289l0,0l0,0
			c3.672-4.425,5.687-9.991,5.696-15.741c0-14.043-11.832-25.436-26.357-25.436c-14.526,0-26.357,11.393-26.357,25.436
			c0.01,5.75,2.024,11.316,5.696,15.741l0,0l0,0c0.37,0.439,0.751,0.864,1.142,1.274c3.119,3.807,12.344,15.917,12.534,30.809
			c0.22,15.229-9.649,27.983-12.886,31.746c-0.322,0.366-0.659,0.718-0.966,1.099l0,0l0,0c-3.672,4.425-5.687,9.991-5.696,15.741
			c0,14.043,11.831,25.421,26.357,25.421c14.525,0,26.357-11.378,26.357-25.421C194.452,323.882,192.497,318.341,188.896,313.909z"
			/>
		<path fill="#FFFFFF" d="M48.951,313.909L48.951,313.909c-0.307-0.381-0.644-0.747-0.98-1.113
			c-3.251-3.777-13.091-16.518-12.871-31.731c0.146-14.95,9.327-27.017,12.651-30.911c0.396-0.425,0.791-0.85,1.156-1.289l0,0l0,0
			c3.672-4.425,5.687-9.991,5.696-15.741c0-14.043-11.831-25.436-26.357-25.436c-14.525,0-26.357,11.393-26.357,25.436
			c-0.013,5.721,1.959,11.269,5.579,15.697l0,0l0,0c0.371,0.439,0.752,0.864,1.143,1.274c3.353,3.909,12.549,16.02,12.769,30.911
			c0.205,15.229-9.665,27.983-12.886,31.746c-0.337,0.366-0.659,0.718-0.967,1.099l0,0l0,0c-3.683,4.42-5.703,9.988-5.711,15.741
			c0,14.043,11.832,25.421,26.431,25.421c14.6,0,26.387-11.29,26.387-25.362c-0.01-5.75-2.024-11.316-5.696-15.741H48.951z"/>
		<path fill="#FFFFFF" d="M50.402,312.459c-16.635-17.967-17.133-44.28,0-62.188c0.793-0.831,0.762-2.147-0.069-2.94
			c-0.377-0.359-0.874-0.564-1.396-0.574l0,0l1.772,3.104c14.13-19.241,0.249-43.095-22.507-44.267
			c-23.59-1.229-35.524,26.504-22.506,44.267l1.771-3.104l0,0c-1.148,0.021-2.062,0.971-2.039,2.119
			c0.01,0.521,0.215,1.019,0.575,1.396c16.941,17.981,16.78,44.192,0,62.188c-0.762,0.85-0.689,2.155,0.159,2.916
			c0.36,0.322,0.821,0.509,1.305,0.525l0,0l-1.771-3.031c-14.116,19.241-0.249,43.08,22.506,44.267
			c23.604,1.215,35.554-26.504,22.507-44.267c-0.586,1.04-1.187,2.065-1.772,3.09l0,0c1.133,0,2.051-0.918,2.051-2.05
			s-0.918-2.05-2.051-2.05l0,0c-1.14,0.011-2.055,0.944-2.044,2.085c0.004,0.353,0.098,0.698,0.272,1.005
			c12.184,16.604,0.952,37.032-18.963,38.071C7.556,354.09-1.963,330.221,9.254,314.949c0.566-0.99,0.223-2.252-0.767-2.817
			c-0.307-0.176-0.652-0.27-1.005-0.272l0,0l1.464,3.499c18.422-19.724,18.597-48.322,0-68.002l-1.464,3.514l0,0
			c1.141-0.003,2.062-0.93,2.059-2.07c-0.001-0.357-0.095-0.709-0.272-1.02c-12.197-16.604-0.966-37.047,18.948-38.071
			c20.661-1.069,30.165,22.799,19.036,38.071c-0.566,0.99-0.223,2.252,0.768,2.817c0.306,0.176,0.651,0.27,1.004,0.272l0,0
			c-0.482-1.171-0.966-2.343-1.464-3.514c-18.787,19.65-18.23,48.322,0,68.002C49.303,317.365,52.202,314.436,50.402,312.459z"/>
		<path fill="#FFFFFF" d="M119.341,363.505L119.341,363.505c-0.322-0.38-0.645-0.746-0.981-1.112
			c-3.309-3.837-13.149-16.576-12.93-31.849c0.205-14.907,9.387-26.958,12.711-30.854c0.395-0.425,0.775-0.85,1.142-1.288l0,0l0,0
			c3.672-4.426,5.687-9.992,5.696-15.742c0-14.042-11.832-25.42-26.357-25.42c-14.526,0-26.357,11.378-26.357,25.42
			c0.01,5.75,2.024,11.316,5.696,15.742l0,0l0,0c0.37,0.438,0.751,0.863,1.142,1.273c3.31,3.881,12.505,15.946,12.71,30.868
			c0.22,15.229-9.649,27.982-12.871,31.746c-0.337,0.366-0.659,0.718-0.966,1.098l0,0l0,0c-3.672,4.425-5.687,9.992-5.696,15.742
			c0,14.042,11.831,25.42,26.357,25.42c14.525,0,26.357-11.378,26.357-25.42c-0.01-5.75-2.024-11.317-5.696-15.742L119.341,363.505z
			"/>
		<path fill="#FFFFFF" d="M120.791,362.055c-16.635-17.967-17.133-44.28,0-62.189c0.792-0.831,0.762-2.147-0.069-2.939
			c-0.377-0.36-0.875-0.564-1.396-0.575l0,0l1.771,3.104c14.131-19.241,0.249-43.095-22.506-44.266
			c-23.59-1.216-35.539,26.504-22.448,44.266l1.772-3.104l0,0c-1.148,0.022-2.062,0.971-2.039,2.119
			c0.01,0.521,0.215,1.019,0.574,1.396c16.957,17.981,16.796,44.193,0,62.189c-0.793,0.831-0.762,2.146,0.069,2.939
			c0.377,0.359,0.874,0.564,1.396,0.575l0,0l-1.772-3.104c-14.13,19.241-0.249,43.08,22.507,44.266
			c23.604,1.216,35.539-26.504,22.506-44.266l-1.771,3.104l0,0c1.137-0.097,1.979-1.096,1.884-2.231
			c-0.085-1.003-0.881-1.799-1.884-1.884l0,0c-1.141,0.012-2.056,0.945-2.044,2.085c0.003,0.353,0.097,0.698,0.272,1.005
			c12.183,16.605,0.951,37.032-19.036,38.072c-20.646,1.068-30.165-22.8-18.948-38.072c0.566-0.99,0.223-2.251-0.768-2.817
			c-0.311-0.178-0.661-0.271-1.019-0.272l0,0l1.464,3.5c18.421-19.725,18.597-48.322,0-68.003l-1.464,3.515l0,0
			c1.147-0.018,2.065-0.962,2.048-2.11c-0.005-0.343-0.095-0.68-0.262-0.979c-12.197-16.605-0.967-37.032,18.948-38.072
			c20.661-1.068,30.165,22.8,19.036,38.072c-0.566,0.989-0.223,2.251,0.767,2.817c0.307,0.175,0.652,0.269,1.005,0.272l0,0
			c-0.498-1.172-0.981-2.343-1.464-3.515c-18.787,19.651-18.231,48.322,0,68.003C119.693,366.917,122.592,363.988,120.791,362.055z"
			/>
		<path fill="#FFFFFF" d="M119.341,363.505L119.341,363.505c-0.322-0.38-0.645-0.746-0.981-1.112
			c-3.309-3.837-13.149-16.576-12.93-31.849c0.205-14.907,9.387-26.958,12.711-30.854c0.395-0.425,0.775-0.85,1.142-1.288l0,0l0,0
			c3.672-4.426,5.687-9.992,5.696-15.742c0-14.042-11.832-25.42-26.357-25.42c-14.526,0-26.357,11.378-26.357,25.42
			c0.01,5.75,2.024,11.316,5.696,15.742l0,0l0,0c0.37,0.438,0.751,0.863,1.142,1.273c3.31,3.881,12.505,15.946,12.71,30.868
			c0.22,15.229-9.649,27.982-12.871,31.746c-0.337,0.366-0.659,0.718-0.966,1.098l0,0l0,0c-3.672,4.425-5.687,9.992-5.696,15.742
			c0,14.042,11.831,25.42,26.357,25.42c14.525,0,26.357-11.378,26.357-25.42c-0.01-5.75-2.024-11.317-5.696-15.742L119.341,363.505z
			"/>
		<path fill="#FFFFFF" d="M286.405,273.582c0-8.132-1.05-13.96-3.148-17.484c-2.108-3.514-5.521-5.286-10.25-5.286
			c-5.067,0.137-10.009,1.611-14.321,4.276c-5.007,2.91-9.331,6.859-12.681,11.582v71.942c-4.979,0.819-10.06,0.819-15.039,0
			v-98.974l1.216-1.464h5.696c3.251,0,5.418,0.85,6.501,2.548c1.271,2.49,1.832,5.281,1.626,8.068v3.046
			c8.541-9.762,18.436-14.644,29.682-14.644c11.245,0,18.899,5.081,22.96,15.244c11.1-10.163,22.072-15.244,32.918-15.244
			c8.531,0,14.877,2.875,19.036,8.625c4.158,5.75,6.257,13.306,6.296,22.668v50.812c0,7.717,0.82,13.486,2.445,17.264
			c-2.637,2.299-6.069,3.472-9.562,3.266c-5.135,0-7.707-3.319-7.717-9.957v-56.435c0-8.132-1.05-13.921-3.148-17.367
			c-2.108-3.455-5.521-5.198-10.25-5.198c-5.015,0.116-9.916,1.518-14.233,4.071c-5.062,2.87-9.486,6.741-13.003,11.377v72.353
			c-4.979,0.819-10.06,0.819-15.038,0L286.405,273.582z"/>
		<path fill="#FFFFFF" d="M454.682,332.315c-1.15,3.413-3.647,6.207-6.911,7.731c-6.417-2.191-11.207-7.599-12.607-14.233
			c-10.426,10.163-20.652,15.244-30.678,15.244c-4.591,0.103-9.153-0.729-13.413-2.445c-7.078-2.876-12.589-8.643-15.141-15.844
			c-1.299-3.586-1.954-7.374-1.933-11.188c-0.099-4.913,0.834-9.792,2.738-14.321c1.696-3.945,4.271-7.451,7.526-10.25
			c3.304-2.779,7.141-4.852,11.275-6.092c4.544-1.391,9.275-2.077,14.027-2.035c8.304-0.13,16.602,0.498,24.791,1.874v-10.25
			c0-13.911-6.097-20.871-18.289-20.881c-9.343,0-20.388,2.846-33.138,8.537c-3.415-2.925-5.348-7.22-5.271-11.715
			c14.644-6.375,27.92-9.557,39.829-9.547c20.998,0,31.498,11.313,31.498,33.942v41.762c-0.225,4.077,0.22,8.163,1.317,12.096
			C451.132,327.553,452.633,330.165,454.682,332.315z M434.358,311.991v-20.325c-3.351-0.552-6.729-0.923-10.118-1.113
			c-3.5-0.204-7.22-0.307-11.129-0.307c-7.683,0-13.54,1.796-17.571,5.389c-4.021,3.571-6.235,8.755-6.033,14.13
			c0,5.682,1.415,10.183,4.246,13.501c2.87,3.347,7.12,5.188,11.524,4.994c5.363-0.097,10.618-1.531,15.287-4.174
			C425.975,321.089,430.679,316.964,434.358,311.991z"/>
		<path fill="#FFFFFF" d="M495.741,326.824h8.522c0.566,1.322,0.945,2.717,1.127,4.145c0.188,1.363,0.29,2.737,0.308,4.114
			c0.009,0.661-0.03,1.321-0.117,1.977c-0.051,0.374-0.08,0.751-0.088,1.128c-2.167,0.41-4.275,0.762-6.311,1.039
			c-2.02,0.269-4.055,0.405-6.092,0.41c-4.946,0.168-9.83-1.142-14.028-3.763c-3.797-2.499-5.691-6.937-5.682-13.311v-132.11
			l1.216-1.216h5.491c3.251,0,5.418,0.776,6.501,2.328c1.084,1.553,1.626,4.159,1.626,7.82v118.726
			C488.215,323.929,490.724,326.834,495.741,326.824z"/>
		<path fill="#FFFFFF" d="M590.643,293.291h-62.965c0.674,23.039,9.411,34.559,26.211,34.559c9.206,0,19.026-2.846,29.462-8.537
			c2.986,2.707,4.93,6.376,5.491,10.367c-10.998,7.551-24.059,11.523-37.398,11.378c-6.262,0.179-12.473-1.184-18.084-3.969
			c-4.945-2.581-9.172-6.35-12.301-10.968c-3.37-5.032-5.773-10.648-7.087-16.561c-1.555-6.87-2.307-13.897-2.24-20.94
			c-0.079-7.137,0.843-14.249,2.738-21.13c1.624-5.943,4.346-11.531,8.024-16.474c3.391-4.481,7.731-8.157,12.71-10.763
			c5.258-2.651,11.084-3.979,16.972-3.865c5.784-0.093,11.521,1.056,16.825,3.367c4.732,2.101,8.942,5.221,12.329,9.138
			c3.435,4.051,6.028,8.745,7.629,13.809c1.787,5.549,2.677,11.347,2.636,17.176c0,2.446-0.103,4.774-0.293,7.015
			S590.906,291.27,590.643,293.291z M527.678,281.709h48.571v-2.636c0-9.362-1.952-16.884-5.857-22.565
			c-3.925-5.696-9.781-8.537-17.571-8.537c-7.159-0.288-13.948,3.182-17.909,9.152c-4.305,6.092-6.726,14.287-7.263,24.586H527.678z
			"/>
		<path fill="#FFFFFF" d="M611.173,333.546V190.453l1.215-1.216h5.55c3.251,0,5.418,0.781,6.502,2.343
			c1.084,1.562,1.625,4.169,1.625,7.82v50.196c8.396-8.259,18.084-12.389,29.066-12.389c10.318-0.352,20.024,4.888,25.392,13.706
			c5.975,9.157,8.956,21.931,8.946,38.321c0.126,7.353-1.008,14.673-3.353,21.643c-1.994,5.875-5.135,11.295-9.24,15.946
			c-3.802,4.248-8.484,7.615-13.721,9.869c-5.234,2.232-10.87,3.374-16.561,3.354C634.497,339.977,622.506,337.776,611.173,333.546z
			 M626.006,264.649v60.359c6.567,2.386,13.515,3.553,20.501,3.44c7.81,0,14.35-3.45,19.621-10.353
			c5.271-6.901,7.902-16.864,7.893-29.887c0.081-5.665-0.459-11.321-1.61-16.868c-0.865-4.129-2.404-8.086-4.554-11.715
			c-1.636-2.771-3.885-5.131-6.575-6.896c-2.367-1.476-5.104-2.252-7.893-2.241c-5.438-0.095-10.805,1.255-15.551,3.91
			C633.245,256.986,629.222,260.472,626.006,264.649z"/>
		<path fill="#FFFFFF" d="M702.004,245.95c0.991-3.582,3.325-6.645,6.516-8.552c7.586,2.86,12.467,8.894,14.644,18.1
			c5.545-11.92,14.624-17.885,27.236-17.895c3.131,0.027,6.255,0.302,9.342,0.82c0.221,4.976-0.978,9.912-3.455,14.233
			c-1.626-0.146-3.998-0.205-7.117-0.205c-10.973,0-19.235,6.164-24.79,18.494v67.666c-4.979,0.819-10.06,0.819-15.039,0V266.67
			C709.33,257.465,706.885,250.557,702.004,245.95z"/>
		<path fill="#FFFFFF" d="M841.026,332.315c-1.15,3.413-3.648,6.207-6.912,7.731c-6.416-2.188-11.202-7.598-12.593-14.233
			c-10.436,10.163-20.686,15.244-30.75,15.244c-4.591,0.103-9.154-0.729-13.413-2.445c-3.58-1.47-6.805-3.687-9.46-6.502
			c-2.497-2.704-4.429-5.881-5.682-9.342c-1.299-3.586-1.953-7.374-1.933-11.188c-0.099-4.913,0.834-9.792,2.738-14.321
			c1.696-3.945,4.271-7.451,7.526-10.25c3.337-2.798,7.215-4.877,11.393-6.106c4.545-1.391,9.275-2.077,14.028-2.035
			c8.284-0.121,16.562,0.511,24.731,1.889v-10.25c0-13.911-6.096-20.871-18.289-20.881c-9.342,0-20.383,2.846-33.122,8.537
			c-3.425-2.919-5.363-7.217-5.286-11.715c14.633-6.414,27.934-9.62,39.902-9.62c20.998,0,31.497,11.313,31.497,33.942v41.835
			c-0.225,4.077,0.221,8.163,1.318,12.096C837.527,327.547,839.003,330.157,841.026,332.315z M820.7,311.991v-20.325
			c-3.351-0.552-6.728-0.923-10.118-1.113c-3.504-0.204-7.214-0.307-11.129-0.307c-7.683,0-13.539,1.796-17.571,5.389
			c-4.032,3.566-6.257,8.75-6.062,14.13c0,5.682,1.416,10.183,4.247,13.501c2.875,3.349,7.129,5.19,11.538,4.994
			c5.345-0.106,10.577-1.541,15.229-4.174C812.272,321.096,817.001,316.971,820.7,311.991z"/>
		<path fill="#FFFFFF" d="M668.207,378.397L668.207,378.397c-0.084,0.061-0.163,0.129-0.233,0.205
			c-3.459,3.399-9.003,3.399-12.462,0l-0.264-0.234l0,0c-0.884-0.725-1.99-1.123-3.134-1.128c-2.907,0.153-5.14,2.635-4.986,5.542
			c0.143,2.693,2.294,4.845,4.986,4.986c1.144-0.005,2.25-0.403,3.134-1.127l0,0l0.249-0.22c3.464-3.401,9.013-3.401,12.477,0
			l0.22,0.19l0,0l0,0c0.883,0.727,1.989,1.125,3.133,1.127c2.907-0.153,5.141-2.634,4.986-5.542
			c-0.142-2.692-2.293-4.844-4.986-4.986c-1.144,0.003-2.25,0.401-3.133,1.128L668.207,378.397z"/>
		<path fill="#FFFFFF" d="M246.838,376.947v-0.424c0.013-0.863-0.086-1.725-0.292-2.563c-0.184-0.735-0.501-1.43-0.938-2.05
			c-0.431-0.578-0.993-1.045-1.641-1.361c-0.74-0.33-1.546-0.49-2.357-0.469c-1.932-0.085-3.719,1.018-4.51,2.782
			c-1.108,2.673-1.608,5.559-1.464,8.449c-0.146,2.454,0.457,4.895,1.728,6.999c1.023,1.595,2.806,2.539,4.7,2.489
			c1.18-0.027,2.343-0.281,3.427-0.747c1.423-0.611,2.762-1.404,3.982-2.357c0.654,0.454,1.229,1.014,1.699,1.655
			c0.48,0.597,0.825,1.291,1.01,2.035c-0.657,0.659-1.39,1.239-2.182,1.728c-0.857,0.543-1.765,1.004-2.709,1.377
			c-0.972,0.41-1.982,0.725-3.017,0.937c-1.033,0.233-2.089,0.351-3.147,0.352c-1.847,0.057-3.677-0.362-5.316-1.215
			c-1.431-0.794-2.65-1.919-3.558-3.28c-0.955-1.459-1.63-3.083-1.991-4.788c-0.419-1.885-0.625-3.81-0.615-5.74
			c-0.041-2.265,0.27-4.522,0.922-6.692c0.533-1.74,1.398-3.361,2.549-4.773c1.001-1.252,2.279-2.254,3.733-2.929
			c1.439-0.633,2.996-0.957,4.568-0.951c1.541-0.02,3.074,0.213,4.54,0.688c1.246,0.399,2.407,1.024,3.426,1.846
			c0.909,0.743,1.647,1.671,2.168,2.724c0.51,1.038,0.771,2.182,0.761,3.338c0.212,1.555-0.877,2.986-2.432,3.198
			c-0.267,0.036-0.538,0.034-0.804-0.006c-0.308,0-0.645,0-1.011,0C247.654,377.141,247.242,377.057,246.838,376.947z"/>
		<path fill="#FFFFFF" d="M264.249,393.172c-3.046-2.621-4.554-6.779-4.554-12.52c-0.029-2.171,0.247-4.334,0.819-6.429
			c0.483-1.724,1.31-3.333,2.431-4.729c1.045-1.262,2.368-2.264,3.866-2.929c1.645-0.71,3.422-1.06,5.213-1.024
			c1.776-0.035,3.54,0.314,5.169,1.024c1.499,0.655,2.819,1.659,3.852,2.929c1.116,1.406,1.934,3.025,2.401,4.759
			c0.582,2.083,0.862,4.237,0.834,6.399c0.031,2.157-0.25,4.308-0.834,6.385c-0.47,1.728-1.287,3.342-2.401,4.744
			c-1.035,1.267-2.354,2.271-3.852,2.929c-1.631,0.702-3.393,1.052-5.169,1.024C269.21,395.834,266.452,394.926,264.249,393.172z
			 M278.278,380.652c0-7.116-2.1-10.675-6.297-10.675c-4.188,0-6.297,3.559-6.297,10.675s2.109,10.646,6.297,10.646
			s6.238-3.559,6.238-10.646H278.278z"/>
		<path fill="#FFFFFF" d="M293.037,395.076l2.255-28.921c1.248-0.211,2.513-0.313,3.778-0.308c1.231-0.009,2.462,0.094,3.675,0.308
			l3.28,11.715c0.879,3.529,1.465,5.945,1.611,7.321h0.293c0.204-1.332,0.746-3.748,1.625-7.321l3.236-11.715
			c2.478-0.409,5.005-0.409,7.482,0l2.255,28.921c-0.896,0.22-1.816,0.323-2.738,0.307c-0.892,0.013-1.783-0.046-2.665-0.175
			l-0.806-13.662c-0.234-3.515-0.336-6.59-0.336-9.226h-0.308l-4.979,18.509c-1.942,0.276-3.914,0.276-5.856,0l-4.979-18.509h-0.293
			c-0.059,3.485-0.171,6.561-0.337,9.226l-0.82,13.662c-0.877,0.129-1.764,0.188-2.65,0.175
			C294.844,395.396,293.929,395.293,293.037,395.076z"/>
		<path fill="#FFFFFF" d="M342.649,385.513h-3.896v9.65c-1.907,0.292-3.848,0.292-5.755,0v-28.848l0.308-0.249l5.755-0.132h3.559
			c2.673-0.133,5.295,0.77,7.321,2.52c1.946,1.919,2.952,4.595,2.753,7.321c0.025,1.439-0.224,2.87-0.732,4.217
			c-0.437,1.162-1.133,2.209-2.035,3.061c-0.907,0.845-1.979,1.493-3.148,1.903C345.443,385.378,344.046,385.565,342.649,385.513z
			 M338.753,370.314v10.851h2.812c0.667,0.011,1.333-0.039,1.991-0.146c0.525-0.069,1.026-0.26,1.465-0.557
			c0.429-0.32,0.783-0.73,1.039-1.201c0.291-0.512,0.504-1.064,0.63-1.64c0.146-0.609,0.22-1.233,0.22-1.859
			c-0.001-0.65-0.074-1.299-0.22-1.934c-0.129-0.615-0.372-1.201-0.718-1.728c-0.35-0.507-0.81-0.928-1.347-1.229
			c-0.657-0.332-1.388-0.493-2.123-0.469h-2.139c-0.624-0.029-1.151-0.059-1.581-0.088H338.753z"/>
		<path fill="#FFFFFF" d="M383.795,366.111v18.611c0.188,3.02-0.87,5.983-2.929,8.2c-4.807,3.832-11.623,3.832-16.43,0
			c-2.064-2.213-3.124-5.18-2.929-8.2v-18.567l0.249-0.308h2.153c0.93-0.077,1.851,0.242,2.533,0.879
			c0.606,0.794,0.894,1.787,0.805,2.782v15.214c0,4.325,1.787,6.482,5.359,6.473c3.573-0.01,5.374-2.167,5.403-6.473v-18.611
			c0.968-0.161,1.948-0.234,2.929-0.22C381.897,365.882,382.852,365.955,383.795,366.111z"/>
		<path fill="#FFFFFF" d="M404.764,373.974v21.189c-0.969,0.151-1.948,0.225-2.929,0.219c-0.98,0.006-1.96-0.068-2.929-0.219
			v-21.189v-3.147h-2.592H391.6c-0.153-0.786-0.228-1.586-0.22-2.387c-0.007-0.797,0.066-1.592,0.22-2.373h20.324
			c0.212,0.753,0.315,1.532,0.308,2.314c0.055,0.694-0.216,1.376-0.731,1.845c-0.684,0.463-1.507,0.675-2.329,0.601h-2.006h-2.592
			L404.764,373.974z"/>
		<path fill="#FFFFFF" d="M434.9,388.574h-2.094h-5.96h-2.094l-1.992,6.634c-0.834,0.162-1.684,0.23-2.533,0.204
			c-0.903,0.034-1.807-0.095-2.665-0.38l-0.205-0.293l9.489-28.628c1.126-0.151,2.261-0.225,3.397-0.22
			c1.069-0.013,2.139,0.076,3.191,0.264l9.313,28.628c-0.895,0.497-1.906,0.745-2.929,0.717c-0.868,0.079-1.736-0.143-2.46-0.629
			c-0.637-0.679-1.073-1.52-1.26-2.431L434.9,388.574z M426.114,384.064h1.918h3.661h1.786l-1.288-4.394
			c-0.952-3.221-1.729-5.974-2.284-8.244h-0.264c-0.254,1.211-0.879,3.607-1.875,7.19L426.114,384.064z"/>
		<path fill="#FFFFFF" d="M469.091,393.245c-1.01,0.812-2.2,1.37-3.471,1.626c-1.474,0.341-2.982,0.513-4.495,0.512h-3.544
			l-6.149-0.131l-0.308-0.249v-28.687l0.308-0.249c1.64,0,3.294-0.103,4.949-0.132c1.654-0.029,3.353,0,5.081,0
			c2.044-0.071,4.077,0.324,5.945,1.157c1.508,0.71,2.805,1.8,3.763,3.163c0.968,1.418,1.64,3.017,1.977,4.7
			c0.392,1.889,0.583,3.812,0.571,5.74c0.043,2.474-0.278,4.94-0.951,7.321C472.105,390.094,470.822,391.92,469.091,393.245z
			 M466.748,373.814c-0.755-2.215-2.927-3.625-5.257-3.412h-2.621c-0.762,0-1.465,0-1.991,0v20.5c0.526,0,1.142,0,1.845,0h2.094
			c0.703,0,1.362-0.059,1.977-0.176c0.508-0.062,1.003-0.205,1.465-0.425c0.719-0.381,1.336-0.928,1.801-1.596
			c0.488-0.7,0.854-1.478,1.084-2.299c0.267-0.918,0.442-1.859,0.527-2.812c0.102-1.037,0.15-2.078,0.146-3.119
			c0.009-1.137-0.069-2.272-0.233-3.397C467.439,375.961,467.158,374.864,466.748,373.814z"/>
		<path fill="#FFFFFF" d="M486.151,393.172c-3.046-2.621-4.555-6.779-4.555-12.52c-0.028-2.171,0.248-4.334,0.82-6.429
			c0.482-1.724,1.31-3.333,2.431-4.729c1.045-1.262,2.368-2.264,3.866-2.929c1.644-0.711,3.422-1.061,5.213-1.024
			c1.776-0.035,3.54,0.314,5.169,1.024c1.499,0.655,2.819,1.659,3.851,2.929c1.112,1.409,1.93,3.027,2.402,4.759
			c0.581,2.083,0.862,4.237,0.834,6.399c0.03,2.157-0.25,4.308-0.834,6.385c-0.477,1.726-1.293,3.339-2.402,4.744
			c-1.037,1.264-2.356,2.267-3.851,2.929c-1.632,0.702-3.394,1.052-5.169,1.024C491.112,395.834,488.354,394.926,486.151,393.172z
			 M500.178,380.652c0-7.116-2.099-10.675-6.296-10.675c-4.198,0-6.297,3.559-6.297,10.675c0,7.087,2.094,10.646,6.297,10.646
			c4.202,0,6.34-3.559,6.34-10.646H500.178z"/>
		<path fill="#FFFFFF" d="M535.79,374.868c0.008,0.904-0.131,1.805-0.41,2.665c-0.247,0.81-0.628,1.571-1.127,2.255
			c-0.476,0.653-1.037,1.239-1.67,1.743c-0.636,0.488-1.349,0.869-2.108,1.127c0.733,0.252,1.379,0.709,1.859,1.318
			c0.553,0.738,0.987,1.559,1.289,2.431l1.566,4.29c0.227,0.638,0.516,1.251,0.864,1.83c0.294,0.496,0.682,0.929,1.142,1.274
			c-0.412,0.546-0.963,0.97-1.596,1.23c-0.736,0.327-1.537,0.487-2.343,0.468c-0.751,0.041-1.483-0.235-2.021-0.761
			c-0.67-0.748-1.169-1.633-1.465-2.592l-1.786-5.067c-0.301-0.861-0.803-1.64-1.464-2.27c-0.724-0.579-1.64-0.862-2.563-0.79
			h-2.606v11.143l-1.317,0.146c-0.483,0-1.011,0.073-1.581,0.073c-0.923,0.003-1.844-0.07-2.753-0.219v-28.848l0.292-0.249
			l5.857-0.132h3.852c2.639-0.152,5.243,0.666,7.321,2.3C534.909,369.907,535.929,372.35,535.79,374.868z M521.454,370.241v9.356
			c1.475-0.088,2.777-0.132,3.91-0.132c3.046,0,4.554-1.464,4.554-4.598s-1.464-4.598-4.554-4.598h-2.27
			C522.45,370.27,521.908,370.27,521.454,370.241z"/>
		<path fill="#FFFFFF" d="M551.531,387.885v2.636l2.929-0.088h10.426c0.011,0.7-0.028,1.4-0.117,2.095
			c-0.246,1.753-1.868,2.976-3.622,2.729c-0.013-0.002-0.025-0.003-0.038-0.005h-11.993c-0.895,0.046-1.768-0.289-2.401-0.923
			c-0.609-0.681-0.921-1.577-0.864-2.489v-25.436l0.293-0.293h17.763c0.15,0.747,0.224,1.508,0.219,2.271
			c-0.013,0.864-0.171,1.721-0.468,2.533h-12.169v2.929v4.393h2.768h7.189c0.239,0.758,0.353,1.549,0.337,2.343
			c0.016,0.789-0.098,1.576-0.337,2.328h-9.957L551.531,387.885z"/>
		<path fill="#FFFFFF" d="M571.827,392.6c0.099-0.839,0.362-1.649,0.775-2.387c0.367-0.731,0.863-1.391,1.465-1.947
			c2.527,1.749,5.509,2.726,8.581,2.812c1.155,0.062,2.297-0.274,3.235-0.952c0.766-0.559,1.213-1.453,1.201-2.401
			c0-1.654-1.157-2.929-3.28-3.88l-4.964-2.05c-1.739-0.647-3.278-1.738-4.466-3.163c-0.964-1.261-1.479-2.807-1.465-4.394
			c-0.017-1.203,0.239-2.394,0.747-3.484c0.497-1.055,1.228-1.981,2.138-2.709c0.975-0.776,2.081-1.372,3.266-1.758
			c1.352-0.44,2.766-0.658,4.188-0.644c3.211,0.019,6.368,0.823,9.196,2.343c-0.035,1.675-0.755,3.263-1.991,4.393
			c-2.328-1.191-4.885-1.87-7.498-1.991c-1.12-0.074-2.231,0.252-3.133,0.922c-0.684,0.562-1.076,1.401-1.069,2.285
			c0,1.288,0.996,2.372,3.017,3.206l5.022,2.139c1.832,0.696,3.455,1.851,4.715,3.353c1.092,1.361,1.677,3.059,1.655,4.804
			c0.014,1.219-0.215,2.429-0.674,3.558c-0.452,1.09-1.16,2.055-2.064,2.812c-1.019,0.827-2.187,1.449-3.441,1.83
			c-1.582,0.469-3.227,0.69-4.876,0.659C578.42,395.896,574.838,394.727,571.827,392.6z"/>
		<path fill="#FFFFFF" d="M734.512,390.463h7.673c0.011,0.702-0.049,1.403-0.176,2.094c-0.293,1.802-1.465,2.694-3.588,2.694
			h-10.016c-0.877,0.048-1.732-0.276-2.357-0.893c-0.6-0.657-0.911-1.527-0.864-2.416v-24.894l0.293-0.293h2.064
			c0.895-0.076,1.779,0.232,2.431,0.85c0.582,0.771,0.858,1.731,0.776,2.694v20.28C731.935,390.58,733.194,390.463,734.512,390.463z
			"/>
		<path fill="#FFFFFF" d="M760.415,374.619v20.501c-0.92,0.144-1.851,0.212-2.782,0.204c-0.937,0.008-1.871-0.061-2.797-0.204
			v-20.501v-3.046h-2.504h-4.583c-0.273-1.525-0.273-3.087,0-4.612h19.709c0.198,0.73,0.297,1.483,0.293,2.24
			c0.06,0.678-0.2,1.343-0.702,1.802c-0.667,0.438-1.461,0.639-2.256,0.57h-1.889h-2.519L760.415,374.619z"/>
		<path fill="#FFFFFF" d="M797.008,393.303c-0.978,0.79-2.134,1.328-3.367,1.567c-1.44,0.338-2.914,0.505-4.394,0.497h-3.44
			l-5.975-0.116l-0.278-0.249v-27.852l0.278-0.249c1.596,0,3.207-0.103,4.817-0.117s3.251,0,4.935,0
			c1.978-0.065,3.944,0.314,5.755,1.113c1.46,0.693,2.716,1.753,3.646,3.075c0.934,1.376,1.586,2.924,1.919,4.554
			c0.379,1.835,0.565,3.705,0.557,5.579c0.041,2.4-0.274,4.794-0.938,7.102C799.905,390.228,798.677,392.008,797.008,393.303z
			 M794.739,374.472c-0.733-2.146-2.838-3.512-5.096-3.309h-2.548h-1.933v19.914c0.527,0,1.112,0,1.786,0s1.347,0,2.035,0
			c0.643-0.025,1.282-0.084,1.919-0.176c0.508-0.053,1.003-0.191,1.464-0.41c0.7-0.365,1.303-0.892,1.757-1.537
			c0.462-0.688,0.813-1.443,1.04-2.24c0.261-0.884,0.432-1.792,0.513-2.709c0.102-1.008,0.15-2.02,0.146-3.031
			c0.008-1.107-0.07-2.214-0.234-3.31C795.433,376.571,795.148,375.499,794.739,374.472z"/>
		<path fill="#FFFFFF" d="M828.653,388.764h-2.021h-5.784h-2.021l-1.933,6.442c-0.811,0.155-1.636,0.224-2.46,0.205
			c-0.874,0.03-1.746-0.094-2.577-0.365l-0.205-0.293l9.195-27.822c1.093-0.146,2.193-0.215,3.295-0.205
			c1.041-0.018,2.08,0.066,3.104,0.249l9.035,27.822c-0.896,0.492-1.908,0.73-2.929,0.688c-0.849,0.083-1.698-0.134-2.401-0.614
			c-0.614-0.654-1.035-1.465-1.216-2.344L828.653,388.764z M820.189,384.372h1.859h3.544h1.728l-1.23-4.218
			c-0.976-3.134-1.718-5.799-2.226-7.995h-0.249c-0.249,1.187-0.849,3.5-1.815,6.971L820.189,384.372z"/>
		<path fill="#FFFFFF" d="M48.951,313.909L48.951,313.909c-0.307-0.381-0.644-0.747-0.98-1.113
			c-3.251-3.777-13.091-16.518-12.871-31.731c0.146-14.95,9.327-27.017,12.651-30.911c0.396-0.425,0.791-0.85,1.156-1.289l0,0l0,0
			c3.672-4.425,5.687-9.991,5.696-15.741c0-14.043-11.831-25.436-26.357-25.436c-14.525,0-26.357,11.393-26.357,25.436
			c-0.013,5.721,1.959,11.269,5.579,15.697l0,0l0,0c0.371,0.439,0.752,0.864,1.143,1.274c3.353,3.909,12.549,16.02,12.769,30.911
			c0.205,15.229-9.665,27.983-12.886,31.746c-0.337,0.366-0.659,0.718-0.967,1.099l0,0l0,0c-3.683,4.42-5.703,9.988-5.711,15.741
			c0,14.043,11.832,25.421,26.431,25.421c14.6,0,26.387-11.29,26.387-25.362c-0.01-5.75-2.024-11.316-5.696-15.741H48.951z"/>
		<path fill="#FFFFFF" d="M286.405,273.582c0-8.132-1.05-13.96-3.148-17.484c-2.108-3.514-5.521-5.286-10.25-5.286
			c-5.067,0.137-10.009,1.611-14.321,4.276c-5.007,2.91-9.331,6.859-12.681,11.582v71.942c-4.979,0.819-10.06,0.819-15.039,0
			v-98.974l1.216-1.464h5.696c3.251,0,5.418,0.85,6.501,2.548c1.271,2.49,1.832,5.281,1.626,8.068v3.046
			c8.541-9.762,18.436-14.644,29.682-14.644c11.245,0,18.899,5.081,22.96,15.244c11.1-10.163,22.072-15.244,32.918-15.244
			c8.531,0,14.877,2.875,19.036,8.625c4.158,5.75,6.257,13.306,6.296,22.668v50.812c0,7.717,0.82,13.486,2.445,17.264
			c-2.637,2.299-6.069,3.472-9.562,3.266c-5.135,0-7.707-3.319-7.717-9.957v-56.435c0-8.132-1.05-13.921-3.148-17.367
			c-2.108-3.455-5.521-5.198-10.25-5.198c-5.015,0.116-9.916,1.518-14.233,4.071c-5.062,2.87-9.486,6.741-13.003,11.377v72.353
			c-4.979,0.819-10.06,0.819-15.038,0L286.405,273.582z"/>
		<path fill="#FFFFFF" d="M454.682,332.315c-1.15,3.413-3.647,6.207-6.911,7.731c-6.417-2.191-11.207-7.599-12.607-14.233
			c-10.426,10.163-20.652,15.244-30.678,15.244c-4.591,0.103-9.153-0.729-13.413-2.445c-7.078-2.876-12.589-8.643-15.141-15.844
			c-1.299-3.586-1.954-7.374-1.933-11.188c-0.099-4.913,0.834-9.792,2.738-14.321c1.696-3.945,4.271-7.451,7.526-10.25
			c3.304-2.779,7.141-4.852,11.275-6.092c4.544-1.391,9.275-2.077,14.027-2.035c8.304-0.13,16.602,0.498,24.791,1.874v-10.25
			c0-13.911-6.097-20.871-18.289-20.881c-9.343,0-20.388,2.846-33.138,8.537c-3.415-2.925-5.348-7.22-5.271-11.715
			c14.644-6.375,27.92-9.557,39.829-9.547c20.998,0,31.498,11.313,31.498,33.942v41.762c-0.225,4.077,0.22,8.163,1.317,12.096
			C451.132,327.553,452.633,330.165,454.682,332.315z M434.358,311.991v-20.325c-3.351-0.552-6.729-0.923-10.118-1.113
			c-3.5-0.204-7.22-0.307-11.129-0.307c-7.683,0-13.54,1.796-17.571,5.389c-4.021,3.571-6.235,8.755-6.033,14.13
			c0,5.682,1.415,10.183,4.246,13.501c2.87,3.347,7.12,5.188,11.524,4.994c5.363-0.097,10.618-1.531,15.287-4.174
			C425.975,321.089,430.679,316.964,434.358,311.991z"/>
		<path fill="#FFFFFF" d="M495.741,326.824h8.522c0.566,1.322,0.945,2.717,1.127,4.145c0.188,1.363,0.29,2.737,0.308,4.114
			c0.009,0.661-0.03,1.321-0.117,1.977c-0.051,0.374-0.08,0.751-0.088,1.128c-2.167,0.41-4.275,0.762-6.311,1.039
			c-2.02,0.269-4.055,0.405-6.092,0.41c-4.946,0.168-9.83-1.142-14.028-3.763c-3.797-2.499-5.691-6.937-5.682-13.311v-132.11
			l1.216-1.216h5.491c3.251,0,5.418,0.776,6.501,2.328c1.084,1.553,1.626,4.159,1.626,7.82v118.726
			C488.215,323.929,490.724,326.834,495.741,326.824z"/>
		<path fill="#FFFFFF" d="M590.643,293.291h-62.965c0.674,23.039,9.411,34.559,26.211,34.559c9.206,0,19.026-2.846,29.462-8.537
			c2.986,2.707,4.93,6.376,5.491,10.367c-10.998,7.551-24.059,11.523-37.398,11.378c-6.262,0.179-12.473-1.184-18.084-3.969
			c-4.945-2.581-9.172-6.35-12.301-10.968c-3.37-5.032-5.773-10.648-7.087-16.561c-1.555-6.87-2.307-13.897-2.24-20.94
			c-0.079-7.137,0.843-14.249,2.738-21.13c1.624-5.943,4.346-11.531,8.024-16.474c3.391-4.481,7.731-8.157,12.71-10.763
			c5.258-2.651,11.084-3.979,16.972-3.865c5.784-0.093,11.521,1.056,16.825,3.367c4.732,2.101,8.942,5.221,12.329,9.138
			c3.435,4.051,6.028,8.745,7.629,13.809c1.787,5.549,2.677,11.347,2.636,17.176c0,2.446-0.103,4.774-0.293,7.015
			S590.906,291.27,590.643,293.291z M527.678,281.709h48.571v-2.636c0-9.362-1.952-16.884-5.857-22.565
			c-3.925-5.696-9.781-8.537-17.571-8.537c-7.159-0.288-13.948,3.182-17.909,9.152c-4.305,6.092-6.726,14.287-7.263,24.586H527.678z
			"/>
		<path fill="#FFFFFF" d="M611.173,333.546V190.453l1.215-1.216h5.55c3.251,0,5.418,0.781,6.502,2.343
			c1.084,1.562,1.625,4.169,1.625,7.82v50.196c8.396-8.259,18.084-12.389,29.066-12.389c10.318-0.352,20.024,4.888,25.392,13.706
			c5.975,9.157,8.956,21.931,8.946,38.321c0.126,7.353-1.008,14.673-3.353,21.643c-1.994,5.875-5.135,11.295-9.24,15.946
			c-3.802,4.248-8.484,7.615-13.721,9.869c-5.234,2.232-10.87,3.374-16.561,3.354C634.497,339.977,622.506,337.776,611.173,333.546z
			 M626.006,264.649v60.359c6.567,2.386,13.515,3.553,20.501,3.44c7.81,0,14.35-3.45,19.621-10.353
			c5.271-6.901,7.902-16.864,7.893-29.887c0.081-5.665-0.459-11.321-1.61-16.868c-0.865-4.129-2.404-8.086-4.554-11.715
			c-1.636-2.771-3.885-5.131-6.575-6.896c-2.367-1.476-5.104-2.252-7.893-2.241c-5.438-0.095-10.805,1.255-15.551,3.91
			C633.245,256.986,629.222,260.472,626.006,264.649z"/>
		<path fill="#FFFFFF" d="M702.004,245.95c0.991-3.582,3.325-6.645,6.516-8.552c7.586,2.86,12.467,8.894,14.644,18.1
			c5.545-11.92,14.624-17.885,27.236-17.895c3.131,0.027,6.255,0.302,9.342,0.82c0.221,4.976-0.978,9.912-3.455,14.233
			c-1.626-0.146-3.998-0.205-7.117-0.205c-10.973,0-19.235,6.164-24.79,18.494v67.666c-4.979,0.819-10.06,0.819-15.039,0V266.67
			C709.33,257.465,706.885,250.557,702.004,245.95z"/>
		<path fill="#FFFFFF" d="M841.026,332.315c-1.15,3.413-3.648,6.207-6.912,7.731c-6.416-2.188-11.202-7.598-12.593-14.233
			c-10.436,10.163-20.686,15.244-30.75,15.244c-4.591,0.103-9.154-0.729-13.413-2.445c-3.58-1.47-6.805-3.687-9.46-6.502
			c-2.497-2.704-4.429-5.881-5.682-9.342c-1.299-3.586-1.953-7.374-1.933-11.188c-0.099-4.913,0.834-9.792,2.738-14.321
			c1.696-3.945,4.271-7.451,7.526-10.25c3.337-2.798,7.215-4.877,11.393-6.106c4.545-1.391,9.275-2.077,14.028-2.035
			c8.284-0.121,16.562,0.511,24.731,1.889v-10.25c0-13.911-6.096-20.871-18.289-20.881c-9.342,0-20.383,2.846-33.122,8.537
			c-3.425-2.919-5.363-7.217-5.286-11.715c14.633-6.414,27.934-9.62,39.902-9.62c20.998,0,31.497,11.313,31.497,33.942v41.835
			c-0.225,4.077,0.221,8.163,1.318,12.096C837.527,327.547,839.003,330.157,841.026,332.315z M820.7,311.991v-20.325
			c-3.351-0.552-6.728-0.923-10.118-1.113c-3.504-0.204-7.214-0.307-11.129-0.307c-7.683,0-13.539,1.796-17.571,5.389
			c-4.032,3.566-6.257,8.75-6.062,14.13c0,5.682,1.416,10.183,4.247,13.501c2.875,3.349,7.129,5.19,11.538,4.994
			c5.345-0.106,10.577-1.541,15.229-4.174C812.272,321.096,817.001,316.971,820.7,311.991z"/>
	</g>
</g>
</svg>
