<svg xmlns="http://www.w3.org/2000/svg" xmlns:xlink="http://www.w3.org/1999/xlink" viewBox="0 0 574.94 149.06"><defs><style>.cls-1{fill:#3c6866;}.cls-2{fill:url(#linear-gradient);}.cls-3{fill:#91b24a;}.cls-4{fill:#6c9152;}.cls-5{fill:url(#linear-gradient-2);}.cls-6{fill:none;stroke:#3c6866;stroke-miterlimit:10;}.cls-7{fill:#d8d9dd;}.cls-8{fill:url(#linear-gradient-3);}.cls-9{fill:url(#linear-gradient-4);}.cls-10{fill:url(#linear-gradient-5);}.cls-11{fill:url(#linear-gradient-6);}.cls-12{fill:url(#linear-gradient-7);}.cls-13{fill:url(#linear-gradient-8);}.cls-14{fill:url(#linear-gradient-9);}.cls-15{fill:url(#linear-gradient-10);}</style><linearGradient id="linear-gradient" x1="96.75" y1="63.41" x2="132.84" y2="63.41" gradientUnits="userSpaceOnUse"><stop offset="0" stop-color="#538080"/><stop offset="1" stop-color="#3c6866"/></linearGradient><linearGradient id="linear-gradient-2" x1="49.28" y1="97.28" x2="85.38" y2="97.28" gradientUnits="userSpaceOnUse"><stop offset="0" stop-color="#83a466"/><stop offset="0.97" stop-color="#6c9152"/></linearGradient><linearGradient id="linear-gradient-3" x1="1.21" y1="63.41" x2="37.31" y2="63.41" gradientUnits="userSpaceOnUse"><stop offset="0" stop-color="#b8c73f"/><stop offset="1" stop-color="#91b24a"/></linearGradient><linearGradient id="linear-gradient-4" x1="167.55" y1="68.16" x2="545.58" y2="69" gradientUnits="userSpaceOnUse"><stop offset="0" stop-color="#b8c73f"/><stop offset="0.23" stop-color="#91b24a"/><stop offset="0.45" stop-color="#83a466"/><stop offset="0.61" stop-color="#6c9152"/><stop offset="0.83" stop-color="#538080"/><stop offset="1" stop-color="#3c6866"/></linearGradient><linearGradient id="linear-gradient-5" x1="167.55" y1="68.33" x2="545.58" y2="69.17" xlink:href="#linear-gradient-4"/><linearGradient id="linear-gradient-6" x1="167.6" y1="51.49" x2="545.61" y2="52.33" xlink:href="#linear-gradient-4"/><linearGradient id="linear-gradient-7" x1="167.54" y1="67.97" x2="545.59" y2="68.82" xlink:href="#linear-gradient-4"/><linearGradient id="linear-gradient-8" x1="167.58" y1="51.4" x2="545.62" y2="52.25" xlink:href="#linear-gradient-4"/><linearGradient id="linear-gradient-9" x1="167.54" y1="67.45" x2="545.59" y2="68.29" xlink:href="#linear-gradient-4"/><linearGradient id="linear-gradient-10" x1="167.55" y1="67.74" x2="545.59" y2="68.58" xlink:href="#linear-gradient-4"/></defs><title>Recurso 1</title><g id="Capa_2" data-name="Capa 2"><g id="Capa_1-2" data-name="Capa 1"><path class="cls-1" d="M129,85.64l0,0c-.21-.26-.44-.51-.67-.76-2.21-2.58-8.94-11.28-8.79-21.67.14-10.18,6.41-18.41,8.68-21.07.27-.29.54-.58.79-.88l0,0h0a16.88,16.88,0,0,0,3.89-10.75c0-9.59-8.08-17.37-18-17.37s-18,7.78-18,17.37a16.88,16.88,0,0,0,3.89,10.75h0l0,0q.38.45.78.87C103.7,44.73,110,53,110.13,63.17c.15,10.4-6.59,19.11-8.8,21.68-.22.25-.45.49-.66.75l0,0h0a16.88,16.88,0,0,0-3.89,10.75c0,9.59,8.08,17.36,18,17.36s18-7.77,18-17.36A16.88,16.88,0,0,0,129,85.64Z"/><path class="cls-1" d="M130,84.65c-11.36-12.27-11.7-30.24,0-42.47a1.42,1.42,0,0,0-1-2.4h0l1.22,2.12c9.64-13.14.17-29.43-15.38-30.23-16.11-.84-24.27,18.1-15.37,30.23l1.22-2.12h0a1.42,1.42,0,0,0-1,2.4c11.57,12.28,11.47,30.18,0,42.47a1.41,1.41,0,0,0,1,2.39h0l-1.22-2.11c-9.64,13.14-.17,29.42,15.37,30.23,16.12.83,24.28-18.1,15.38-30.23L129,87h0a1.4,1.4,0,0,0,0-2.8h0a1.41,1.41,0,0,0-1.21,2.11c8.33,11.34.66,25.29-12.95,26-14.1.73-20.6-15.57-12.94-26a1.41,1.41,0,0,0-1.21-2.11h0l1,2.39c12.58-13.47,12.7-33,0-46.44l-1,2.4h0a1.41,1.41,0,0,0,1.21-2.11c-8.33-11.34-.66-25.3,12.94-26,14.11-.73,20.6,15.57,12.95,26A1.41,1.41,0,0,0,129,42.59h0c-.33-.8-.66-1.6-1-2.4-12.83,13.42-12.45,33,0,46.44C129.2,88,131.18,86,130,84.65Z"/><path class="cls-2" d="M129,85.64l0,0c-.21-.26-.44-.51-.67-.76-2.21-2.58-8.94-11.28-8.79-21.67.14-10.18,6.41-18.41,8.68-21.07.27-.29.54-.58.79-.88l0,0h0a16.88,16.88,0,0,0,3.89-10.75c0-9.59-8.08-17.37-18-17.37s-18,7.78-18,17.37a16.88,16.88,0,0,0,3.89,10.75h0l0,0q.38.45.78.87C103.7,44.73,110,53,110.13,63.17c.15,10.4-6.59,19.11-8.8,21.68-.22.25-.45.49-.66.75l0,0h0a16.88,16.88,0,0,0-3.89,10.75c0,9.59,8.08,17.36,18,17.36s18-7.77,18-17.36A16.88,16.88,0,0,0,129,85.64Z"/><path class="cls-3" d="M33.43,85.64l0,0c-.21-.26-.44-.51-.67-.76-2.22-2.58-8.94-11.28-8.79-21.67C24.07,53,30.34,44.76,32.61,42.1c.27-.29.54-.58.79-.88l0,0h0a16.88,16.88,0,0,0,3.89-10.75c0-9.59-8.08-17.37-18-17.37s-18,7.78-18,17.37A16.88,16.88,0,0,0,5.1,41.19h0l0,0q.38.45.78.87C8.17,44.73,14.45,53,14.6,63.17,14.74,73.57,8,82.28,5.8,84.85c-.23.25-.45.49-.66.75l0,0h0a16.83,16.83,0,0,0-3.9,10.75c0,9.59,8.08,17.36,18.05,17.36S37.31,106,37.31,96.39a16.88,16.88,0,0,0-3.89-10.75Z"/><path class="cls-3" d="M34.42,84.65c-11.36-12.27-11.7-30.24,0-42.47a1.42,1.42,0,0,0-1-2.4h0l1.21,2.12c9.65-13.14.17-29.43-15.37-30.23C3.15,10.83-5,29.77,3.89,41.9L5.1,39.78h0a1.42,1.42,0,0,0-1,2.4c11.57,12.28,11.46,30.18,0,42.47A1.41,1.41,0,0,0,5.1,87h0L3.89,84.93c-9.64,13.14-.17,29.42,15.37,30.23,16.12.83,24.28-18.1,15.37-30.23-.4.71-.81,1.41-1.21,2.11h0a1.4,1.4,0,0,0,0-2.8h0a1.41,1.41,0,0,0-1.21,2.11c8.32,11.34.65,25.29-12.95,26-14.1.73-20.6-15.57-12.94-26a1.41,1.41,0,0,0-1.21-2.11h0l1,2.39c12.58-13.47,12.7-33,0-46.44l-1,2.4h0a1.41,1.41,0,0,0,1.22-2.11c-8.33-11.34-.66-25.3,12.94-26,14.11-.73,20.6,15.57,13,26a1.41,1.41,0,0,0,1.21,2.11h0c-.33-.8-.66-1.6-1-2.4-12.83,13.42-12.45,33,0,46.44C33.67,88,35.65,86,34.42,84.65Z"/><path class="cls-4" d="M81.5,119.51l0,0c-.22-.26-.44-.51-.67-.76C78.57,116.13,71.85,107.43,72,97c.14-10.18,6.41-18.41,8.68-21.07.27-.29.53-.58.78-.88l0,0h0a16.88,16.88,0,0,0,3.89-10.75c0-9.59-8.08-17.36-18-17.36s-18,7.77-18,17.36a16.88,16.88,0,0,0,3.89,10.75h0l0,0q.38.45.78.87c2.26,2.65,8.54,10.89,8.68,21.08.15,10.4-6.59,19.11-8.79,21.68-.23.25-.45.49-.66.75l0,0h0a16.88,16.88,0,0,0-3.89,10.75c0,9.59,8.08,17.36,18,17.36s18-7.77,18-17.36a16.88,16.88,0,0,0-3.89-10.75Z"/><path class="cls-4" d="M82.49,118.52c-11.36-12.27-11.7-30.24,0-42.47a1.42,1.42,0,0,0-1-2.4h0l1.21,2.12c9.65-13.14.17-29.43-15.37-30.23C51.22,44.71,43.06,63.64,52,75.77l1.21-2.12h0a1.42,1.42,0,0,0-1,2.4c11.58,12.28,11.47,30.18,0,42.47a1.42,1.42,0,0,0,1,2.4h0L52,118.8c-9.65,13.14-.17,29.42,15.37,30.23,16.12.83,24.27-18.1,15.37-30.23l-1.21,2.12h0a1.41,1.41,0,0,0,0-2.81h0a1.41,1.41,0,0,0-1.21,2.11c8.32,11.34.65,25.29-13,26-14.1.73-20.6-15.57-12.94-26a1.41,1.41,0,0,0-1.22-2.11h0l1,2.39c12.58-13.47,12.7-33,0-46.44l-1,2.4h0a1.42,1.42,0,0,0,1.22-2.11c-8.33-11.34-.66-25.29,12.94-26,14.11-.73,20.6,15.57,13,26a1.41,1.41,0,0,0,1.21,2.11h0c-.34-.8-.67-1.6-1-2.4-12.83,13.42-12.45,33,0,46.44C81.74,121.84,83.72,119.84,82.49,118.52Z"/><path class="cls-5" d="M81.5,119.51l0,0c-.22-.26-.44-.51-.67-.76C78.57,116.13,71.85,107.43,72,97c.14-10.18,6.41-18.41,8.68-21.07.27-.29.53-.58.78-.88l0,0h0a16.88,16.88,0,0,0,3.89-10.75c0-9.59-8.08-17.36-18-17.36s-18,7.77-18,17.36a16.88,16.88,0,0,0,3.89,10.75h0l0,0q.38.45.78.87c2.26,2.65,8.54,10.89,8.68,21.08.15,10.4-6.59,19.11-8.79,21.68-.23.25-.45.49-.66.75l0,0h0a16.88,16.88,0,0,0-3.89,10.75c0,9.59,8.08,17.36,18,17.36s18-7.77,18-17.36a16.88,16.88,0,0,0-3.89-10.75Z"/><path class="cls-6" d="M195.59,58.1q0-8.33-2.15-11.94c-1.44-2.4-3.77-3.61-7-3.61a19.61,19.61,0,0,0-9.78,2.92A27.66,27.66,0,0,0,168,53.38v49.13a31.6,31.6,0,0,1-10.27,0V34.92l.83-1h3.89q3.33,0,4.44,1.74A10.43,10.43,0,0,1,168,41.17v2.08q8.75-10,20.27-10t15.68,10.41q11.37-10.41,22.48-10.41,8.74,0,13,5.89t4.3,15.48v34.7c0,5.27.56,9.21,1.67,11.79a9.12,9.12,0,0,1-6.53,2.23q-5.26,0-5.27-6.8V58q0-8.33-2.15-11.86c-1.44-2.36-3.77-3.55-7-3.55a20,20,0,0,0-9.72,2.78,29.27,29.27,0,0,0-8.88,7.77v49.41a31.6,31.6,0,0,1-10.27,0Z"/><path class="cls-6" d="M310.51,98.21a9,9,0,0,1-4.72,5.28,13.14,13.14,0,0,1-8.61-9.72q-10.68,10.41-20.95,10.41a23.12,23.12,0,0,1-9.16-1.67,18.26,18.26,0,0,1-10.34-10.82,22.07,22.07,0,0,1-1.32-7.64,24,24,0,0,1,1.87-9.78,19.27,19.27,0,0,1,5.14-7,21.6,21.6,0,0,1,7.7-4.16,31.78,31.78,0,0,1,9.58-1.39A93.35,93.35,0,0,1,296.63,63V56q0-14.25-12.49-14.26-9.57,0-22.63,5.83a10.3,10.3,0,0,1-3.6-8q15-6.53,27.2-6.52,21.51,0,21.51,23.18V84.75a25.51,25.51,0,0,0,.9,8.26A12.65,12.65,0,0,0,310.51,98.21ZM296.63,84.33V70.45a64.9,64.9,0,0,0-6.91-.76c-2.39-.14-4.93-.21-7.6-.21q-7.87,0-12,3.68A12.29,12.29,0,0,0,266,82.81q0,5.82,2.9,9.22a9.8,9.8,0,0,0,7.87,3.41,22,22,0,0,0,10.44-2.85A29.5,29.5,0,0,0,296.63,84.33Z"/><path class="cls-6" d="M338.55,94.46h5.82a10.59,10.59,0,0,1,.77,2.83,22.88,22.88,0,0,1,.21,2.81,9.46,9.46,0,0,1-.08,1.35,6.73,6.73,0,0,0-.06.77c-1.48.28-2.92.52-4.31.71a32.18,32.18,0,0,1-4.16.28,17,17,0,0,1-9.58-2.57q-3.89-2.56-3.88-9.09V1.33l.83-.83h3.75q3.33,0,4.44,1.59t1.11,5.34V88.51Q333.41,94.47,338.55,94.46Z"/><path class="cls-6" d="M403.36,71.56h-43q.69,23.6,17.9,23.6,9.43,0,20.12-5.83a11.77,11.77,0,0,1,3.75,7.08,44.27,44.27,0,0,1-25.54,7.77,26.1,26.1,0,0,1-12.35-2.71,23,23,0,0,1-8.4-7.49A33.3,33.3,0,0,1,351,82.67a62.1,62.1,0,0,1-1.53-14.3,52.15,52.15,0,0,1,1.87-14.43,33.73,33.73,0,0,1,5.48-11.25,26,26,0,0,1,8.68-7.35,24.69,24.69,0,0,1,11.59-2.64A27.64,27.64,0,0,1,388.58,35,24,24,0,0,1,397,41.24a27.31,27.31,0,0,1,5.21,9.43,37.42,37.42,0,0,1,1.8,11.73c0,1.67-.07,3.26-.2,4.79S403.54,70.18,403.36,71.56Zm-43-7.91h33.17v-1.8q0-9.59-4-15.41c-2.68-3.89-6.68-5.83-12-5.83a14,14,0,0,0-12.23,6.25Q360.89,53.1,360.34,63.65Z"/><path class="cls-6" d="M417.38,99.05V1.33l.83-.83H422q3.33,0,4.44,1.6t1.11,5.34V41.72q8.6-8.46,19.85-8.46a19.52,19.52,0,0,1,17.34,9.36q6.12,9.38,6.11,26.17a44,44,0,0,1-2.29,14.78,32,32,0,0,1-6.31,10.89,26.79,26.79,0,0,1-9.37,6.74,28.58,28.58,0,0,1-11.31,2.29A70.32,70.32,0,0,1,417.38,99.05ZM427.51,52V93.22a39.16,39.16,0,0,0,14,2.35q8,0,13.4-7.07t5.39-20.41a53,53,0,0,0-1.1-11.52,26.27,26.27,0,0,0-3.11-8,14.37,14.37,0,0,0-4.49-4.71,10.12,10.12,0,0,0-5.39-1.53A21,21,0,0,0,435.59,45,26.79,26.79,0,0,0,427.51,52Z"/><path class="cls-6" d="M479.41,39.23a9.87,9.87,0,0,1,4.45-5.84q7.77,2.93,10,12.36,5.68-12.21,18.6-12.22a40.64,40.64,0,0,1,6.38.56,17.94,17.94,0,0,1-2.36,9.72c-1.11-.1-2.73-.14-4.86-.14q-11.24,0-16.93,12.63v46.21a31.6,31.6,0,0,1-10.27,0V53.38Q484.41,43.95,479.41,39.23Z"/><path class="cls-6" d="M574.35,98.21a9,9,0,0,1-4.72,5.28,13.11,13.11,0,0,1-8.6-9.72q-10.69,10.41-21,10.41a23.12,23.12,0,0,1-9.16-1.67,18.58,18.58,0,0,1-6.46-4.44,18.87,18.87,0,0,1-3.88-6.38,22.07,22.07,0,0,1-1.32-7.64,24,24,0,0,1,1.87-9.78,19.27,19.27,0,0,1,5.14-7A21.6,21.6,0,0,1,534,63.1a31.78,31.78,0,0,1,9.58-1.39A93.35,93.35,0,0,1,560.47,63V56q0-14.25-12.49-14.26-9.57,0-22.62,5.83a10.28,10.28,0,0,1-3.61-8Q536.74,33,549,33q21.51,0,21.51,23.18V84.75a25.51,25.51,0,0,0,.9,8.26A12.65,12.65,0,0,0,574.35,98.21ZM560.47,84.33V70.45a64.9,64.9,0,0,0-6.91-.76q-3.59-.21-7.6-.21-7.87,0-12,3.68a12.29,12.29,0,0,0-4.14,9.65q0,5.82,2.9,9.22a9.81,9.81,0,0,0,7.88,3.41A22,22,0,0,0,551,92.59,29.5,29.5,0,0,0,560.47,84.33Z"/><path class="cls-7" d="M456.33,129.68h0a1.07,1.07,0,0,0-.16.14,6.07,6.07,0,0,1-8.51,0l-.18-.16h0a3.4,3.4,0,0,0-2.14-.77,3.6,3.6,0,0,0,0,7.19,3.4,3.4,0,0,0,2.14-.77h0l.17-.15a6.08,6.08,0,0,1,8.52,0l.15.13a0,0,0,0,1,0,0h0a3.38,3.38,0,0,0,2.14.77,3.6,3.6,0,0,0,0-7.19,3.38,3.38,0,0,0-2.14.77Z"/><path class="cls-7" d="M168.57,128.69v-.29a6.89,6.89,0,0,0-.2-1.75,4.18,4.18,0,0,0-.64-1.4,3.09,3.09,0,0,0-1.12-.93A3.72,3.72,0,0,0,165,124a3.22,3.22,0,0,0-3.08,1.9,13.33,13.33,0,0,0-1,5.77,8.3,8.3,0,0,0,1.18,4.78,3.7,3.7,0,0,0,3.21,1.7,6.31,6.31,0,0,0,2.34-.51,12.35,12.35,0,0,0,2.72-1.61,4.91,4.91,0,0,1,1.16,1.13,3.6,3.6,0,0,1,.69,1.39,8.16,8.16,0,0,1-1.49,1.18,11.07,11.07,0,0,1-1.85.94,11,11,0,0,1-2.06.64,9.84,9.84,0,0,1-2.15.24,7.38,7.38,0,0,1-3.63-.83,7,7,0,0,1-2.43-2.24,9.61,9.61,0,0,1-1.36-3.27,17.65,17.65,0,0,1-.42-3.92,14.93,14.93,0,0,1,.63-4.57,9.62,9.62,0,0,1,1.74-3.26,7.08,7.08,0,0,1,2.55-2,7.68,7.68,0,0,1,3.12-.65,9.66,9.66,0,0,1,3.1.47,7.26,7.26,0,0,1,2.34,1.26,5.62,5.62,0,0,1,1.48,1.86,5.08,5.08,0,0,1,.52,2.28,1.94,1.94,0,0,1-2.21,2.18c-.21,0-.44,0-.69,0A6.38,6.38,0,0,1,168.57,128.69Z"/><path class="cls-7" d="M180.46,139.77c-2.08-1.79-3.11-4.63-3.11-8.55a15.86,15.86,0,0,1,.56-4.39,9.06,9.06,0,0,1,1.66-3.23,7.24,7.24,0,0,1,2.64-2,8.57,8.57,0,0,1,3.56-.7,8.43,8.43,0,0,1,3.53.7,7,7,0,0,1,2.63,2,9,9,0,0,1,1.64,3.25,15.48,15.48,0,0,1,.57,4.37,15.31,15.31,0,0,1-.57,4.36,9,9,0,0,1-1.64,3.24,7.07,7.07,0,0,1-2.63,2,8.59,8.59,0,0,1-3.53.7A8.07,8.07,0,0,1,180.46,139.77Zm9.58-8.55q0-7.29-4.3-7.29c-2.86,0-4.3,2.43-4.3,7.29s1.44,7.27,4.3,7.27S190,136.06,190,131.22Z"/><path class="cls-7" d="M200.12,141.07l1.54-19.75a15,15,0,0,1,2.58-.21,13.84,13.84,0,0,1,2.51.21l2.24,8c.6,2.41,1,4.06,1.1,5h.2c.14-.91.51-2.56,1.11-5l2.21-8a15.65,15.65,0,0,1,5.11,0l1.54,19.75a7.3,7.3,0,0,1-1.87.21,11.42,11.42,0,0,1-1.82-.12l-.55-9.33c-.16-2.4-.23-4.5-.23-6.3h-.21l-3.4,12.64a14.21,14.21,0,0,1-4,0l-3.4-12.64h-.2q-.06,3.57-.23,6.3l-.56,9.33a11.28,11.28,0,0,1-1.81.12A7.38,7.38,0,0,1,200.12,141.07Z"/><path class="cls-7" d="M234,134.54h-2.66v6.59a12.95,12.95,0,0,1-3.93,0v-19.7l.21-.17,3.93-.09,2.43,0a7.11,7.11,0,0,1,5,1.72,6.37,6.37,0,0,1,1.88,5,7.76,7.76,0,0,1-.5,2.88,5.56,5.56,0,0,1-1.39,2.09,6.13,6.13,0,0,1-2.15,1.3A8.36,8.36,0,0,1,234,134.54Zm-2.66-10.38v7.41l1.92,0a7.64,7.64,0,0,0,1.36-.1,2.32,2.32,0,0,0,1-.38,2.54,2.54,0,0,0,.71-.82,4,4,0,0,0,.43-1.12,5.44,5.44,0,0,0,.15-1.27,5.94,5.94,0,0,0-.15-1.32,3.43,3.43,0,0,0-.49-1.18,2.76,2.76,0,0,0-.92-.84,3,3,0,0,0-1.45-.32h-1.46Q231.8,124.19,231.36,124.16Z"/><path class="cls-7" d="M262.1,121.29V134a7.54,7.54,0,0,1-2,5.6,9,9,0,0,1-11.22,0,7.5,7.5,0,0,1-2-5.6V121.32l.17-.21h1.47a2.26,2.26,0,0,1,1.73.6,2.73,2.73,0,0,1,.55,1.9V134q0,4.43,3.66,4.42t3.69-4.42V121.29a11.09,11.09,0,0,1,2-.15A11.21,11.21,0,0,1,262.1,121.29Z"/><path class="cls-7" d="M276.42,126.66v14.47a12.41,12.41,0,0,1-2,.15,12.55,12.55,0,0,1-2-.15V126.66l0-2.15-1.77,0h-3.22a8.08,8.08,0,0,1-.15-1.63,8,8,0,0,1,.15-1.62h13.88a5.64,5.64,0,0,1,.21,1.58,1.54,1.54,0,0,1-.5,1.26,2.44,2.44,0,0,1-1.59.41h-1.37l-1.77,0Z"/><path class="cls-7" d="M297,136.63l-1.43,0H291.5l-1.43,0-1.36,4.53a7.82,7.82,0,0,1-1.73.14,5.16,5.16,0,0,1-1.82-.26l-.14-.2,6.48-19.55a16.75,16.75,0,0,1,2.32-.15,11.62,11.62,0,0,1,2.18.18l6.36,19.55a3.9,3.9,0,0,1-2,.49,2.59,2.59,0,0,1-1.68-.43,3.43,3.43,0,0,1-.86-1.66Zm-6-3.08,1.31,0h2.5l1.22,0-.88-3c-.65-2.2-1.18-4.08-1.56-5.63h-.18q-.26,1.24-1.28,4.91Z"/><path class="cls-7" d="M320.35,139.82a5.51,5.51,0,0,1-2.37,1.11,13.63,13.63,0,0,1-3.07.35l-2.42,0-4.2-.09-.21-.17V121.43l.21-.17c1.12,0,2.25-.07,3.38-.09s2.29,0,3.47,0a9.18,9.18,0,0,1,4.06.79,6.55,6.55,0,0,1,2.57,2.16,8.74,8.74,0,0,1,1.35,3.21,18.81,18.81,0,0,1,.39,3.92,17.28,17.28,0,0,1-.65,5A7.28,7.28,0,0,1,320.35,139.82Zm-1.6-13.27a3.46,3.46,0,0,0-3.59-2.33h-1.79c-.52,0-1,0-1.36,0v14q.54,0,1.26,0l1.43,0q.72,0,1.35-.12a3.25,3.25,0,0,0,1-.29,3.49,3.49,0,0,0,1.23-1.09,5.17,5.17,0,0,0,.74-1.57,10.07,10.07,0,0,0,.36-1.92,21,21,0,0,0,.1-2.13,15.28,15.28,0,0,0-.16-2.32A9.43,9.43,0,0,0,318.75,126.55Z"/><path class="cls-7" d="M332,139.77c-2.08-1.79-3.11-4.63-3.11-8.55a15.86,15.86,0,0,1,.56-4.39,9.06,9.06,0,0,1,1.66-3.23,7.24,7.24,0,0,1,2.64-2,8.54,8.54,0,0,1,3.56-.7,8.43,8.43,0,0,1,3.53.7,7,7,0,0,1,2.63,2,9.12,9.12,0,0,1,1.64,3.25,15.48,15.48,0,0,1,.57,4.37,15.31,15.31,0,0,1-.57,4.36,9.16,9.16,0,0,1-1.64,3.24,7.15,7.15,0,0,1-2.63,2,8.59,8.59,0,0,1-3.53.7A8.07,8.07,0,0,1,332,139.77Zm9.58-8.55q0-7.29-4.3-7.29t-4.3,7.29c0,4.84,1.43,7.27,4.3,7.27S341.61,136.06,341.61,131.22Z"/><path class="cls-7" d="M365.9,127.27a5.73,5.73,0,0,1-.28,1.82,5.17,5.17,0,0,1-.77,1.54,6.13,6.13,0,0,1-1.14,1.19,5,5,0,0,1-1.44.77,2.76,2.76,0,0,1,1.27.9,6.11,6.11,0,0,1,.88,1.66l1.07,2.93a6.94,6.94,0,0,0,.59,1.25,3,3,0,0,0,.78.87,2.61,2.61,0,0,1-1.09.84,3.72,3.72,0,0,1-1.6.32,1.83,1.83,0,0,1-1.38-.52,4.75,4.75,0,0,1-1-1.77l-1.22-3.46a3.93,3.93,0,0,0-1-1.55,2.49,2.49,0,0,0-1.75-.54h-1.78v7.61l-.9.1c-.33,0-.69.05-1.08.05a11.46,11.46,0,0,1-1.88-.15v-19.7l.2-.17,4-.09,2.63,0a7.4,7.4,0,0,1,5,1.57A5.64,5.64,0,0,1,365.9,127.27Zm-9.79-3.16v6.39q1.51-.09,2.67-.09c2.08,0,3.11-1,3.11-3.14s-1-3.14-3.11-3.14h-1.55C356.79,124.13,356.42,124.13,356.11,124.11Z"/><path class="cls-7" d="M376.65,136.16l0,1.8,2-.06h7.12a10.12,10.12,0,0,1-.08,1.43,2.19,2.19,0,0,1-2.5,1.86H375a2.16,2.16,0,0,1-1.64-.63,2.33,2.33,0,0,1-.59-1.7V121.49l.2-.2H385.1a7.62,7.62,0,0,1,.15,1.55,5.26,5.26,0,0,1-.32,1.73h-8.31l0,2v3l1.89,0h4.91a5,5,0,0,1,.23,1.6,4.94,4.94,0,0,1-.23,1.59h-6.8Z"/><path class="cls-7" d="M390.51,139.38a4.39,4.39,0,0,1,.53-1.63,4.66,4.66,0,0,1,1-1.33,10.83,10.83,0,0,0,5.86,1.92,3.46,3.46,0,0,0,2.21-.65,2,2,0,0,0,.82-1.64c0-1.13-.79-2-2.24-2.65L395.3,132a7.27,7.27,0,0,1-3.05-2.16,4.87,4.87,0,0,1-1-3,5.46,5.46,0,0,1,.51-2.38,5.22,5.22,0,0,1,1.46-1.85,7.11,7.11,0,0,1,2.23-1.2,8.94,8.94,0,0,1,2.86-.44,13.44,13.44,0,0,1,6.28,1.6,4.18,4.18,0,0,1-1.36,3,12.51,12.51,0,0,0-5.12-1.36,3.23,3.23,0,0,0-2.14.63,2,2,0,0,0-.73,1.56c0,.88.68,1.62,2.06,2.19l3.43,1.46a7.84,7.84,0,0,1,3.22,2.29,5.14,5.14,0,0,1,1.13,3.28,6.26,6.26,0,0,1-.46,2.43,5,5,0,0,1-1.41,1.92,6.92,6.92,0,0,1-2.35,1.25,11,11,0,0,1-3.33.45A12.51,12.51,0,0,1,390.51,139.38Z"/><path class="cls-7" d="M501.61,137.92h5.24a7.27,7.27,0,0,1-.12,1.43c-.2,1.23-1,1.84-2.45,1.84h-6.84a2.13,2.13,0,0,1-1.61-.61,2.27,2.27,0,0,1-.59-1.65v-17l.2-.2h1.41a2.15,2.15,0,0,1,1.66.58,2.68,2.68,0,0,1,.53,1.84V138C499.85,138,500.71,137.92,501.61,137.92Z"/><path class="cls-7" d="M519.3,127.1v14a11.71,11.71,0,0,1-1.9.14,11.84,11.84,0,0,1-1.91-.14v-14l0-2.08-1.71,0h-3.13a8.93,8.93,0,0,1,0-3.15h13.46a5.72,5.72,0,0,1,.2,1.53,1.49,1.49,0,0,1-.48,1.23,2.43,2.43,0,0,1-1.54.39H521l-1.72,0Z"/><path class="cls-7" d="M544.29,139.86a5.24,5.24,0,0,1-2.3,1.07,12.83,12.83,0,0,1-3,.34l-2.35,0-4.08-.08-.19-.17V122l.19-.17c1.09,0,2.19-.07,3.29-.08s2.22,0,3.37,0a9,9,0,0,1,3.93.76,6.4,6.4,0,0,1,2.49,2.1,8.62,8.62,0,0,1,1.31,3.11,18.36,18.36,0,0,1,.38,3.81,16.53,16.53,0,0,1-.64,4.85A7,7,0,0,1,544.29,139.86ZM542.74,127a3.36,3.36,0,0,0-3.48-2.26h-1.74l-1.32,0v13.6c.36,0,.76,0,1.22,0s.92,0,1.39,0a12.73,12.73,0,0,0,1.31-.12,3.07,3.07,0,0,0,1-.28,3.38,3.38,0,0,0,1.2-1.05,5.39,5.39,0,0,0,.71-1.53,9.48,9.48,0,0,0,.35-1.85,19.94,19.94,0,0,0,.1-2.07,14.57,14.57,0,0,0-.16-2.26A9.47,9.47,0,0,0,542.74,127Z"/><path class="cls-7" d="M565.9,136.76l-1.38,0h-3.95l-1.38,0-1.32,4.4a8,8,0,0,1-1.68.14,5.09,5.09,0,0,1-1.76-.25l-.14-.2,6.28-19a15.79,15.79,0,0,1,2.25-.14,11,11,0,0,1,2.12.17l6.17,19a3.82,3.82,0,0,1-2,.47,2.48,2.48,0,0,1-1.64-.42,3.31,3.31,0,0,1-.83-1.6Zm-5.78-3,1.27,0h2.42l1.18,0-.84-2.88q-1-3.21-1.52-5.46h-.17c-.17.81-.58,2.39-1.24,4.76Z"/><path class="cls-8" d="M33.43,85.64l0,0c-.21-.26-.44-.51-.67-.76-2.22-2.58-8.94-11.28-8.79-21.67C24.07,53,30.34,44.76,32.61,42.1c.27-.29.54-.58.79-.88l0,0h0a16.88,16.88,0,0,0,3.89-10.75c0-9.59-8.08-17.37-18-17.37s-18,7.78-18,17.37A16.88,16.88,0,0,0,5.1,41.19h0l0,0q.38.45.78.87C8.17,44.73,14.45,53,14.6,63.17,14.74,73.57,8,82.28,5.8,84.85c-.23.25-.45.49-.66.75l0,0h0a16.83,16.83,0,0,0-3.9,10.75c0,9.59,8.08,17.36,18.05,17.36S37.31,106,37.31,96.39a16.88,16.88,0,0,0-3.89-10.75Z"/><path class="cls-9" d="M195.59,58.1q0-8.33-2.15-11.94c-1.44-2.4-3.77-3.61-7-3.61a19.61,19.61,0,0,0-9.78,2.92A27.66,27.66,0,0,0,168,53.38v49.13a31.6,31.6,0,0,1-10.27,0V34.92l.83-1h3.89q3.33,0,4.44,1.74A10.43,10.43,0,0,1,168,41.17v2.08q8.75-10,20.27-10t15.68,10.41q11.37-10.41,22.48-10.41,8.74,0,13,5.89t4.3,15.48v34.7c0,5.27.56,9.21,1.67,11.79a9.12,9.12,0,0,1-6.53,2.23q-5.26,0-5.27-6.8V58q0-8.33-2.15-11.86c-1.44-2.36-3.77-3.55-7-3.55a20,20,0,0,0-9.72,2.78,29.27,29.27,0,0,0-8.88,7.77v49.41a31.6,31.6,0,0,1-10.27,0Z"/><path class="cls-10" d="M310.51,98.21a9,9,0,0,1-4.72,5.28,13.14,13.14,0,0,1-8.61-9.72q-10.68,10.41-20.95,10.41a23.12,23.12,0,0,1-9.16-1.67,18.26,18.26,0,0,1-10.34-10.82,22.07,22.07,0,0,1-1.32-7.64,24,24,0,0,1,1.87-9.78,19.27,19.27,0,0,1,5.14-7,21.6,21.6,0,0,1,7.7-4.16,31.78,31.78,0,0,1,9.58-1.39A93.35,93.35,0,0,1,296.63,63V56q0-14.25-12.49-14.26-9.57,0-22.63,5.83a10.3,10.3,0,0,1-3.6-8q15-6.53,27.2-6.52,21.51,0,21.51,23.18V84.75a25.51,25.51,0,0,0,.9,8.26A12.65,12.65,0,0,0,310.51,98.21ZM296.63,84.33V70.45a64.9,64.9,0,0,0-6.91-.76c-2.39-.14-4.93-.21-7.6-.21q-7.87,0-12,3.68A12.29,12.29,0,0,0,266,82.81q0,5.82,2.9,9.22a9.8,9.8,0,0,0,7.87,3.41,22,22,0,0,0,10.44-2.85A29.5,29.5,0,0,0,296.63,84.33Z"/><path class="cls-11" d="M338.55,94.46h5.82a10.59,10.59,0,0,1,.77,2.83,22.88,22.88,0,0,1,.21,2.81,9.46,9.46,0,0,1-.08,1.35,6.73,6.73,0,0,0-.06.77c-1.48.28-2.92.52-4.31.71a32.18,32.18,0,0,1-4.16.28,17,17,0,0,1-9.58-2.57q-3.89-2.56-3.88-9.09V1.33l.83-.83h3.75q3.33,0,4.44,1.59t1.11,5.34V88.51Q333.41,94.47,338.55,94.46Z"/><path class="cls-12" d="M403.36,71.56h-43q.69,23.6,17.9,23.6,9.43,0,20.12-5.83a11.77,11.77,0,0,1,3.75,7.08,44.27,44.27,0,0,1-25.54,7.77,26.1,26.1,0,0,1-12.35-2.71,23,23,0,0,1-8.4-7.49A33.3,33.3,0,0,1,351,82.67a62.1,62.1,0,0,1-1.53-14.3,52.15,52.15,0,0,1,1.87-14.43,33.73,33.73,0,0,1,5.48-11.25,26,26,0,0,1,8.68-7.35,24.69,24.69,0,0,1,11.59-2.64A27.64,27.64,0,0,1,388.58,35,24,24,0,0,1,397,41.24a27.31,27.31,0,0,1,5.21,9.43,37.42,37.42,0,0,1,1.8,11.73c0,1.67-.07,3.26-.2,4.79S403.54,70.18,403.36,71.56Zm-43-7.91h33.17v-1.8q0-9.59-4-15.41c-2.68-3.89-6.68-5.83-12-5.83a14,14,0,0,0-12.23,6.25Q360.89,53.1,360.34,63.65Z"/><path class="cls-13" d="M417.38,99.05V1.33l.83-.83H422q3.33,0,4.44,1.6t1.11,5.34V41.72q8.6-8.46,19.85-8.46a19.52,19.52,0,0,1,17.34,9.36q6.12,9.38,6.11,26.17a44,44,0,0,1-2.29,14.78,32,32,0,0,1-6.31,10.89,26.79,26.79,0,0,1-9.37,6.74,28.58,28.58,0,0,1-11.31,2.29A70.32,70.32,0,0,1,417.38,99.05ZM427.51,52V93.22a39.16,39.16,0,0,0,14,2.35q8,0,13.4-7.07t5.39-20.41a53,53,0,0,0-1.1-11.52,26.27,26.27,0,0,0-3.11-8,14.37,14.37,0,0,0-4.49-4.71,10.12,10.12,0,0,0-5.39-1.53A21,21,0,0,0,435.59,45,26.79,26.79,0,0,0,427.51,52Z"/><path class="cls-14" d="M479.41,39.23a9.87,9.87,0,0,1,4.45-5.84q7.77,2.93,10,12.36,5.68-12.21,18.6-12.22a40.64,40.64,0,0,1,6.38.56,17.94,17.94,0,0,1-2.36,9.72c-1.11-.1-2.73-.14-4.86-.14q-11.24,0-16.93,12.63v46.21a31.6,31.6,0,0,1-10.27,0V53.38Q484.41,43.95,479.41,39.23Z"/><path class="cls-15" d="M574.35,98.21a9,9,0,0,1-4.72,5.28,13.11,13.11,0,0,1-8.6-9.72q-10.69,10.41-21,10.41a23.12,23.12,0,0,1-9.16-1.67,18.58,18.58,0,0,1-6.46-4.44,18.87,18.87,0,0,1-3.88-6.38,22.07,22.07,0,0,1-1.32-7.64,24,24,0,0,1,1.87-9.78,19.27,19.27,0,0,1,5.14-7A21.6,21.6,0,0,1,534,63.1a31.78,31.78,0,0,1,9.58-1.39A93.35,93.35,0,0,1,560.47,63V56q0-14.25-12.49-14.26-9.57,0-22.62,5.83a10.28,10.28,0,0,1-3.61-8Q536.74,33,549,33q21.51,0,21.51,23.18V84.75a25.51,25.51,0,0,0,.9,8.26A12.65,12.65,0,0,0,574.35,98.21ZM560.47,84.33V70.45a64.9,64.9,0,0,0-6.91-.76q-3.59-.21-7.6-.21-7.87,0-12,3.68a12.29,12.29,0,0,0-4.14,9.65q0,5.82,2.9,9.22a9.81,9.81,0,0,0,7.88,3.41A22,22,0,0,0,551,92.59,29.5,29.5,0,0,0,560.47,84.33Z"/></g></g></svg>